<svg xmlns="http://www.w3.org/2000/svg" fill="none" viewBox="0 0 212 160"><g fill="#000" clip-path="url(#a)"><path d="M31.467 1.6C25.6 4.8 22.933 37.333 27.2 53.333 28.267 57.6 28.8 63.2 28.4 66.8c-.533 4.8-.267 6.267 1.467 6.933 4 1.6 6-.533 8.8-9.066 3.066-9.2 10.8-22.134 16.533-27.2 4.4-4.134 4.4-5.867 0-8.8-3.333-2.134-3.6-2.134-6.8.933-1.867 1.6-5.6 6.4-8.267 10.4l-4.8 7.333-.933-6c-1.2-7.866.133-26 2.267-28.8 1.466-2.133 2.133-2 8.8.134 4 1.2 11.6 4.666 16.933 7.466l9.733 5.2 8.934-3.066c12.4-4.134 38.4-4.134 50.266 0l7.867 2.8L148.667 20c5.066-2.8 12.666-6 16.666-7.2 10-2.933 10.934-1.867 11.734 14.933.266 7.334 0 14.267-.667 15.467-1.067 2-1.867 1.467-5.067-3.467-4.533-7.066-10-13.066-11.866-13.066-.8 0-2.934 1.2-4.8 2.666l-3.334 2.534 4.8 5.066C163.6 44.8 168.933 53.467 172 62.8c3.2 9.867 5.733 12.4 9.6 10.4 2.267-1.2 2.533-2.267 1.733-7.333-.533-3.734 0-9.6 1.467-16 3.867-17.334 1.067-44.934-4.933-48.667-2.4-1.467-18.534 2.667-30.134 7.6-7.466 3.2-12.4 4.533-14.8 4.133-2-.4-8.666-1.733-14.933-2.933-12.667-2.4-22-1.867-37.067 2l-9.466 2.4-7.734-3.6C51.333 3.867 35.067-.4 31.467 1.6Z"/><path d="M72.133 49.867c-1.866 2.266-1.066 2.8 5.467 4 5.733 1.066 8.133-1.334 4.4-4.134-3.2-2.266-7.867-2.266-9.867.134ZM129.733 48.933C128.8 49.2 128 50.8 128 52.267c0 2.133.667 2.533 3.067 1.866 1.6-.4 4.266-.8 6-.8 1.6 0 2.933-.8 2.933-1.866 0-2.934-5.867-4.4-10.267-2.534ZM65.6 62.133C64 63.2 61.733 66 60.533 68.267 54.267 80.4 68 94.933 79.733 88.8 85.6 85.733 88 81.6 88 74.533c0-5.066-.8-7.066-3.867-10.4C80.933 60.667 79.2 60 74.4 60c-3.2 0-7.2.933-8.8 2.133ZM84 67.867c.933 2 .8 3.066-.8 4.666-2.4 2.534-2.667 2.534-6 .8C74.667 72 73.733 68 75.6 66.267c1.733-1.867 7.067-.8 8.4 1.6ZM127.2 64.533c-3.733 3.734-4.533 5.467-4.533 10.4 0 6.667 2.533 10.934 8.266 13.867 5.867 3.067 12 1.467 17.067-4.4 3.867-4.267 4.267-5.467 3.6-10.933C150.667 65.333 144.933 60 137.2 60c-4.4 0-6.267.8-10 4.533Zm19.333 2.667c3.334 4-3.2 9.467-7.2 6.133-2.133-1.733-2.666-5.6-1.066-7.066 1.466-1.6 6.666-1.067 8.266.933ZM20.667 82.133C15.6 83.2 8.933 84.533 6 85.067c-4.267.8-5.467 1.6-5.733 4.133-.534 3.2-.4 3.2 7.6 2.267 4.533-.4 11.866-1.2 16.533-1.6 13.733-1.2 14.533-1.467 14-5.6-.533-4.4-4.133-4.934-17.733-2.134ZM173.2 82.133c-2.133 2.667-.133 6.4 3.6 6.8 1.333.134 9.333.934 17.6 1.867 11.333 1.2 15.467 1.2 16.667 0 2.933-2.933-2.134-5.2-17.734-8-18.266-3.333-17.866-3.333-20.133-.667ZM96.667 88c-.934 1.467 1.066 5.467 3.866 7.867 2 1.733 1.467 5.333-1.066 7.066-2.934 2-7.467.934-10.667-2.4-2-2.266-4-3.333-5.333-2.8-3.067 1.2-2.667 4.134 1.333 8.8 4.267 5.067 10.8 6.534 16.533 3.6 3.734-1.866 4.667-1.866 8.134-.133 4.933 2.667 9.2 2.533 13.2-.267 6.666-4.533 8.8-10.4 4.533-12-1.467-.533-3.067.4-4.8 2.667-4 5.467-13.067 4.4-13.067-1.6 0-1.067 1.334-3.333 2.8-4.933 4.667-4.934 2.534-7.2-6.666-7.2-4.4 0-8.4.533-8.8 1.333ZM23.333 109.333c-14.533 6.8-18.133 9.734-15.466 12.4 1.2 1.2 2.933 1.067 7.866-.8 3.467-1.333 10.8-4 16.267-6 10.267-3.733 12.533-6.4 9.333-10.266-2.266-2.8-2.933-2.534-18 4.666ZM171.067 103.6c-2.934 1.067-2 7.067 1.333 8.267 1.6.666 8.4 3.333 14.933 6 14.267 5.733 17.067 6 16.4 1.733-.266-2.267-3.466-4.4-14.4-9.867C175.067 102.8 174 102.4 171.067 103.6ZM37.867 123.733c-2.934 2.667-8.267 7.2-11.734 10-6.4 5.334-7.6 9.2-3.066 10C24.4 144 29.6 141.067 34.8 137.2l9.333-6.933 7.6 7.6C66.267 152.4 91.467 161.333 112 159.333c18.667-2 33.6-8.666 47.467-21.2l8.133-7.333 9.2 6.667c5.067 3.6 10.133 6.533 11.333 6.533 1.867 0 3.867-2.533 3.867-4.667 0-.266-4.8-4.266-10.667-8.8-5.866-4.533-10.666-8.666-10.666-9.333 0-.667-1.467-1.467-3.2-2-2.8-.667-4.667.667-12 8.533-5.2 5.334-11.867 10.934-16.4 13.334-28 14.8-61.2 9.466-83.334-13.2-4.8-5.067-9.6-9.2-10.666-9.2-.934 0-4.134 2.266-7.2 5.066Z"/></g><defs><clipPath id="a"><path fill="#fff" d="M0 0h212v160H0z"/></clipPath></defs></svg>